<?xml version="1.0" encoding="UTF-8" standalone="no"?>
<!-- Created with Inkscape (http://www.inkscape.org/) -->

<svg
   version="1.1"
   id="svg1"
   width="255.67999"
   height="97.599998"
   viewBox="0 0 255.67999 97.599998"
   sodipodi:docname="logo.svg"
   inkscape:version="1.4.2 (ebf0e940d0, 2025-05-08)"
   xmlns:inkscape="http://www.inkscape.org/namespaces/inkscape"
   xmlns:sodipodi="http://sodipodi.sourceforge.net/DTD/sodipodi-0.dtd"
   xmlns="http://www.w3.org/2000/svg"
   xmlns:svg="http://www.w3.org/2000/svg">
  <defs
     id="defs1" />
  <sodipodi:namedview
     id="namedview1"
     pagecolor="#ffffff"
     bordercolor="#000000"
     borderopacity="0.25"
     inkscape:showpageshadow="2"
     inkscape:pageopacity="0.0"
     inkscape:pagecheckerboard="0"
     inkscape:deskcolor="#d1d1d1"
     showgrid="false"
     inkscape:zoom="3.661645"
     inkscape:cx="145.15334"
     inkscape:cy="51.616145"
     inkscape:window-width="1908"
     inkscape:window-height="1025"
     inkscape:window-x="0"
     inkscape:window-y="0"
     inkscape:window-maximized="1"
     inkscape:current-layer="g1" />
  <g
     inkscape:groupmode="layer"
     inkscape:label="Image"
     id="g1">
    <rect
       style="display:none;opacity:1;fill:#000000;fill-opacity:1"
       id="rect5"
       width="256.64554"
       height="98.100784"
       x="-0.19311178"
       y="-0.38622355" />
    <text
       xml:space="preserve"
       style="font-style:normal;font-variant:normal;font-weight:normal;font-stretch:normal;font-size:10.6667px;font-family:Cantarell;-inkscape-font-specification:Cantarell;text-align:start;writing-mode:lr-tb;direction:ltr;text-anchor:start;opacity:1;fill:#66cdc8;fill-opacity:1"
       x="86.127846"
       y="78.210274"
       id="text6"><tspan
         sodipodi:role="line"
         id="tspan6"
         x="86.127846"
         y="78.210274"
         style="font-size:10.6667px;fill:#66cdc8;fill-opacity:1">WEBSITE BUILDER</tspan></text>
    <path
       style="opacity:1;fill:#ffffff;fill-opacity:1"
       d="m 117.41196,19.504289 c -0.36196,0 -0.0653,-0.0078 -0.869,0.193112 l 13.22815,11.683263 c -0.25748,-0.193112 -0.51496,-0.386224 -0.77244,-0.579336 0,-0.03219 0.0228,-0.0738 0,-0.09656 -0.0322,-0.03219 -0.25747,-0.06437 -0.28967,-0.09656 -0.0228,-0.02276 0.0144,-0.06777 0,-0.09656 -0.10243,-0.20486 -0.41595,-0.415954 -0.57934,-0.579336 -0.0686,-0.06856 -0.17591,-0.272517 -0.19311,-0.289667 -0.0509,-0.05089 -0.14221,-0.04567 -0.19311,-0.09656 -0.0645,-0.06452 0.0645,-0.128592 0,-0.193112 -0.13101,-0.131012 -0.19311,0.109585 -0.19311,-0.193112 0.25748,0.09656 0.52649,0.1667 0.77245,0.289685 0.0117,0.0059 0.0809,0.274038 0.0966,0.289668 0.0228,0.02276 0.0738,-0.02276 0.0966,0 0.0483,0.04828 0.0483,0.144831 0.0965,0.193111 0.0322,0.03219 0.25747,0.06437 0.28967,0.09656 0.0228,0.02276 -0.0228,0.0738 0,0.09656 0.0524,0.05242 0.18567,0.08912 0.28967,0.193112 0,-0.804645 -0.25753,-0.772455 0.0965,-0.772455 0.26255,0.978592 -0.96554,-0.03294 -0.96554,0.386223 0.88057,0.589664 0.55913,-0.482779 0.96555,-0.482779 -0.25748,0.09656 -0.51496,0.193112 -0.77244,0.289668 0.25748,-0.03219 0.51496,-0.06437 0.77244,-0.09656 -0.26313,-0.251948 -0.9926,0.193116 -1.06211,0.193116 0.13704,0.356025 1.17993,-0.289668 1.25523,-0.289668 -0.20163,-0.704581 -0.72147,0.289668 -0.86901,0.289668 0.28967,0 0.57934,0 0.86901,0"
       id="path8" />
    <path
       style="opacity:1;fill:#ffffff;fill-opacity:1"
       d="m 130.35045,12.648821 11.20048,7.04858 -0.77244,0.579336 -11.29704,-6.952024 z"
       id="path11" />
    <path
       style="opacity:1;fill:#ffffff;fill-opacity:1"
       d="m 140.58537,22.111298 -10.81426,8.207251 -0.48278,-0.579335 10.5246,-8.303807 z"
       id="path12" />
  </g>
  <text
     xml:space="preserve"
     style="font-size:33.3333px;text-align:start;writing-mode:lr-tb;direction:ltr;text-anchor:start;fill:#000000"
     x="18.345619"
     y="61.023323"
     id="text1"><tspan
       sodipodi:role="line"
       id="tspan1"
       x="18.345619"
       y="61.023323"
       style="font-style:normal;font-variant:normal;font-weight:normal;font-stretch:normal;font-size:33.3333px;font-family:Cantarell;-inkscape-font-specification:Cantarell;fill:#ffffff;fill-opacity:1"><tspan
         style="font-style:normal;font-variant:normal;font-weight:normal;font-stretch:normal;font-size:37.3333px;font-family:Cantarell;-inkscape-font-specification:Cantarell;fill:#ffffff;fill-opacity:1"
         id="tspan4">N</tspan><tspan
         style="font-style:normal;font-variant:normal;font-weight:normal;font-stretch:normal;font-size:29.3333px;font-family:Cantarell;-inkscape-font-specification:Cantarell;fill:#ffffff;fill-opacity:1"
         id="tspan2">ET</tspan><tspan
         style="font-style:normal;font-variant:normal;font-weight:normal;font-stretch:normal;font-size:37.3333px;font-family:Cantarell;-inkscape-font-specification:Cantarell;fill:#ffffff;fill-opacity:1"
         id="tspan5">V</tspan><tspan
         style="font-style:normal;font-variant:normal;font-weight:normal;font-stretch:normal;font-size:29.3333px;font-family:Cantarell;-inkscape-font-specification:Cantarell;fill:#ffffff;fill-opacity:1"
         id="tspan3">ANGUARD</tspan></tspan></text>
  <path
     style="opacity:1;fill:#ffffff;fill-opacity:1"
     d="m 128.22622,13.131601 0.869,-0.09656 v 16.89728 l -0.869,-0.193111 z"
     id="path10" />
  <path
     style="opacity:1;fill:#ffffff;fill-opacity:1"
     d="M 128.90211,29.642658 128.61244,13.131601 Z"
     id="path9" />
  <ellipse
     style="opacity:1;fill:#1e5e6f;fill-opacity:1"
     id="path7"
     cx="116.34983"
     cy="19.697403"
     rx="3.2829001"
     ry="3.1863444" />
  <g
     inkscape:groupmode="layer"
     id="layer1"
     inkscape:label="Image 1">
    <circle
       style="opacity:1;fill:#66cdc8;fill-opacity:1"
       id="path6"
       cx="128.41933"
       cy="12.166041"
       r="2.8966765" />
    <circle
       style="fill:#66cdc8;fill-opacity:1"
       id="path6-9-2"
       cx="128.89607"
       cy="31.131599"
       r="2.8966765" />
    <circle
       style="fill:#66cdc8;fill-opacity:1"
       id="path6-9"
       cx="142.62732"
       cy="20.483383"
       r="2.8966765" />
  </g>
</svg>
